PathFileType	4	(X/Y/Z)	C:\Users\italobelli\Desktop\GitHub\PTbot_officialCBL\Personal_Results\ABD23_noisy1.trc
DataRate	CameraRate	NumFrames	NumMarkers	Units	OrigDataRate	OrigDataStartFrame	OrigNumFrames
105.444444	105.444444	38	9	m	105.444444	119	950
Frame#	Time		gu		centelbow		EpL		centpxt8		centijc7		ij		ts		aa		ai
			X1	Y1	Z1	X2	Y2	Z2	X3	Y3	Z3	X4	Y4	Z4	X5	Y5	Z5	X6	Y6	Z6	X7	Y7	Z7	X8	Y8	Z8	X9	Y9	Z9

119	1.1191	-0.094983	-0.0080007	0.15465	-0.14473	-0.24998	0.19198	-0.15243	-0.23934	0.22119	-0.046816	-0.15316	-0.008669	-0.046816	0.031938	-0.008669	0	0	0	-0.12625	0.027497	0.034282	-0.12497	0.025686	0.15357	-0.1426	-0.084765	0.038023
120	1.1286	-0.094888	-0.007729	0.15447	-0.14427	-0.2493	0.19352	-0.15212	-0.23851	0.22261	-0.046816	-0.15316	-0.008669	-0.046816	0.031938	-0.008669	0	0	0	-0.12612	0.027412	0.034048	-0.1249	0.025915	0.15336	-0.14229	-0.084856	0.038107
121	1.138	-0.094791	-0.0074409	0.15429	-0.1438	-0.24857	0.19514	-0.1518	-0.23763	0.22409	-0.046816	-0.15316	-0.008669	-0.046816	0.031938	-0.008669	0	0	0	-0.12598	0.027324	0.033805	-0.12482	0.026156	0.15313	-0.14198	-0.084949	0.038199
122	1.1475	-0.09469	-0.007137	0.1541	-0.14331	-0.2478	0.19682	-0.15147	-0.23669	0.22563	-0.046816	-0.15316	-0.008669	-0.046816	0.031938	-0.008669	0	0	0	-0.12583	0.027232	0.033554	-0.12475	0.026409	0.1529	-0.14165	-0.085046	0.0383
123	1.157	-0.094588	-0.0068181	0.1539	-0.14281	-0.24699	0.19856	-0.15114	-0.2357	0.22723	-0.046816	-0.15316	-0.008669	-0.046816	0.031938	-0.008669	0	0	0	-0.12569	0.027136	0.033296	-0.12467	0.026674	0.15266	-0.14132	-0.085145	0.03841
124	1.1665	-0.094483	-0.0064846	0.15371	-0.14231	-0.24613	0.20037	-0.15079	-0.23467	0.22888	-0.046816	-0.15316	-0.008669	-0.046816	0.031938	-0.008669	0	0	0	-0.12553	0.027036	0.033031	-0.1246	0.026949	0.15242	-0.14097	-0.085246	0.038528
125	1.176	-0.094376	-0.0061373	0.15351	-0.14179	-0.24523	0.20224	-0.15045	-0.23358	0.23059	-0.046816	-0.15316	-0.008669	-0.046816	0.031938	-0.008669	0	0	0	-0.12538	0.026933	0.03276	-0.12452	0.027235	0.15217	-0.14061	-0.08535	0.038654
126	1.1855	-0.094268	-0.0057767	0.15331	-0.14126	-0.2443	0.20416	-0.1501	-0.23245	0.23234	-0.046816	-0.15316	-0.008669	-0.046816	0.031938	-0.008669	0	0	0	-0.12522	0.026827	0.032484	-0.12444	0.02753	0.15191	-0.14024	-0.085457	0.038788
127	1.1949	-0.094159	-0.0054034	0.1531	-0.14073	-0.24332	0.20614	-0.14974	-0.23128	0.23414	-0.046816	-0.15316	-0.008669	-0.046816	0.031938	-0.008669	0	0	0	-0.12506	0.026718	0.032203	-0.12436	0.027835	0.15165	-0.13987	-0.085565	0.03893
128	1.2044	-0.094048	-0.0050181	0.1529	-0.14019	-0.24231	0.20816	-0.14938	-0.23006	0.23599	-0.046816	-0.15316	-0.008669	-0.046816	0.031938	-0.008669	0	0	0	-0.12489	0.026605	0.031919	-0.12428	0.028149	0.15138	-0.13949	-0.085675	0.03908
129	1.2139	-0.093937	-0.0046215	0.15269	-0.13964	-0.24126	0.21023	-0.14901	-0.22879	0.23787	-0.046816	-0.15316	-0.008669	-0.046816	0.031938	-0.008669	0	0	0	-0.12473	0.026489	0.031632	-0.1242	0.02847	0.15111	-0.1391	-0.085787	0.039237
130	1.2234	-0.093825	-0.0042141	0.15248	-0.13909	-0.24017	0.21234	-0.14864	-0.22749	0.23979	-0.046816	-0.15316	-0.008669	-0.046816	0.031938	-0.008669	0	0	0	-0.12456	0.02637	0.031342	-0.12412	0.028799	0.15083	-0.13871	-0.0859	0.039401
131	1.2329	-0.093713	-0.0037965	0.15227	-0.13853	-0.23906	0.21448	-0.14827	-0.22615	0.24175	-0.046816	-0.15316	-0.008669	-0.046816	0.031938	-0.008669	0	0	0	-0.12439	0.026248	0.031051	-0.12404	0.029136	0.15055	-0.13831	-0.086015	0.039572
132	1.2424	-0.093601	-0.0033693	0.15205	-0.13797	-0.2379	0.21667	-0.1479	-0.22477	0.24374	-0.046816	-0.15316	-0.008669	-0.046816	0.031938	-0.008669	0	0	0	-0.12422	0.026123	0.030759	-0.12396	0.029479	0.15027	-0.13791	-0.086131	0.03975
133	1.2518	-0.093489	-0.0029333	0.15184	-0.13741	-0.23672	0.21889	-0.14752	-0.22336	0.24575	-0.046816	-0.15316	-0.008669	-0.046816	0.031938	-0.008669	0	0	0	-0.12405	0.025996	0.030467	-0.12388	0.029827	0.14998	-0.13751	-0.086248	0.039935
134	1.2613	-0.093377	-0.002489	0.15163	-0.13684	-0.23551	0.22113	-0.14714	-0.22191	0.24779	-0.046816	-0.15316	-0.008669	-0.046816	0.031938	-0.008669	0	0	0	-0.12388	0.025866	0.030175	-0.1238	0.030181	0.1497	-0.1371	-0.086366	0.040127
135	1.2708	-0.093267	-0.002037	0.15141	-0.13627	-0.23427	0.2234	-0.14676	-0.22043	0.24985	-0.046816	-0.15316	-0.008669	-0.046816	0.031938	-0.008669	0	0	0	-0.12371	0.025733	0.029885	-0.12372	0.030541	0.14941	-0.13669	-0.086485	0.040325
136	1.2803	-0.093157	-0.0015779	0.1512	-0.13571	-0.23301	0.2257	-0.14638	-0.21891	0.25193	-0.046816	-0.15316	-0.008669	-0.046816	0.031938	-0.008669	0	0	0	-0.12354	0.025598	0.029596	-0.12365	0.030904	0.14912	-0.13629	-0.086605	0.040528
137	1.2898	-0.093049	-0.0011125	0.15098	-0.13514	-0.23171	0.22801	-0.14599	-0.21737	0.25403	-0.046816	-0.15316	-0.008669	-0.046816	0.031938	-0.008669	0	0	0	-0.12337	0.025461	0.029311	-0.12357	0.031271	0.14883	-0.13588	-0.086725	0.040738
138	1.2993	-0.092942	-0.00064116	0.15077	-0.13457	-0.23039	0.23034	-0.14561	-0.2158	0.25614	-0.046816	-0.15316	-0.008669	-0.046816	0.031938	-0.008669	0	0	0	-0.1232	0.025321	0.029029	-0.1235	0.031642	0.14853	-0.13548	-0.086845	0.040954
139	1.3087	-0.092837	-0.00016468	0.15055	-0.134	-0.22905	0.23268	-0.14523	-0.2142	0.25826	-0.046816	-0.15316	-0.008669	-0.046816	0.031938	-0.008669	0	0	0	-0.12304	0.025179	0.028751	-0.12343	0.032015	0.14824	-0.13508	-0.086966	0.041176
140	1.3182	-0.092734	0.00031637	0.15034	-0.13344	-0.22769	0.23503	-0.14484	-0.21258	0.26039	-0.046816	-0.15316	-0.008669	-0.046816	0.031938	-0.008669	0	0	0	-0.12288	0.025035	0.028477	-0.12336	0.03239	0.14795	-0.13468	-0.087086	0.041402
141	1.3277	-0.092633	0.00080136	0.15013	-0.13288	-0.2263	0.23739	-0.14446	-0.21093	0.26252	-0.046816	-0.15316	-0.008669	-0.046816	0.031938	-0.008669	0	0	0	-0.12272	0.024889	0.02821	-0.12329	0.032767	0.14766	-0.13429	-0.087206	0.041635
142	1.3372	-0.092535	0.0012897	0.14992	-0.13232	-0.2249	0.23975	-0.14408	-0.20926	0.26465	-0.046816	-0.15316	-0.008669	-0.046816	0.031938	-0.008669	0	0	0	-0.12256	0.024741	0.027949	-0.12323	0.033145	0.14738	-0.1339	-0.087326	0.041872
143	1.3467	-0.09244	0.0017807	0.14971	-0.13177	-0.22348	0.24211	-0.1437	-0.20757	0.26678	-0.046816	-0.15316	-0.008669	-0.046816	0.031938	-0.008669	0	0	0	-0.12241	0.024591	0.027694	-0.12316	0.033523	0.14709	-0.13352	-0.087446	0.042114
144	1.3562	-0.092348	0.0022738	0.1495	-0.13123	-0.22204	0.24447	-0.14333	-0.20586	0.2689	-0.046816	-0.15316	-0.008669	-0.046816	0.031938	-0.008669	0	0	0	-0.12226	0.02444	0.027448	-0.1231	0.033902	0.14681	-0.13315	-0.087565	0.042361
145	1.3656	-0.092259	0.0027684	0.1493	-0.13069	-0.22058	0.24682	-0.14295	-0.20414	0.27102	-0.046816	-0.15316	-0.008669	-0.046816	0.031938	-0.008669	0	0	0	-0.12212	0.024287	0.02721	-0.12305	0.03428	0.14653	-0.13278	-0.087683	0.042613
146	1.3751	-0.092174	0.0032638	0.14909	-0.13015	-0.21911	0.24916	-0.14258	-0.2024	0.27312	-0.046816	-0.15316	-0.008669	-0.046816	0.031938	-0.008669	0	0	0	-0.12198	0.024132	0.026981	-0.12299	0.034657	0.14625	-0.13242	-0.0878	0.042869
147	1.3846	-0.092092	0.0037595	0.14889	-0.12963	-0.21762	0.25149	-0.14221	-0.20064	0.27521	-0.046816	-0.15316	-0.008669	-0.046816	0.031938	-0.008669	0	0	0	-0.12184	0.023976	0.026762	-0.12294	0.035032	0.14598	-0.13207	-0.087916	0.043129
148	1.3941	-0.092015	0.0042547	0.14869	-0.12911	-0.21613	0.2538	-0.14185	-0.19887	0.27729	-0.046816	-0.15316	-0.008669	-0.046816	0.031938	-0.008669	0	0	0	-0.12171	0.023819	0.026554	-0.12289	0.035405	0.14571	-0.13174	-0.088031	0.043393
149	1.4036	-0.091942	0.004749	0.1485	-0.12861	-0.21462	0.25609	-0.14149	-0.19709	0.27934	-0.046816	-0.15316	-0.008669	-0.046816	0.031938	-0.008669	0	0	0	-0.12159	0.02366	0.026357	-0.12285	0.035775	0.14545	-0.13141	-0.088144	0.043661
150	1.4131	-0.091874	0.0052416	0.14831	-0.12811	-0.2131	0.25836	-0.14113	-0.19531	0.28137	-0.046816	-0.15316	-0.008669	-0.046816	0.031938	-0.008669	0	0	0	-0.12147	0.0235	0.026172	-0.12281	0.036142	0.14519	-0.1311	-0.088256	0.043933
151	1.4226	-0.091811	0.0057319	0.14812	-0.12763	-0.21157	0.2606	-0.14078	-0.19351	0.28337	-0.046816	-0.15316	-0.008669	-0.046816	0.031938	-0.008669	0	0	0	-0.12136	0.02334	0.026	-0.12277	0.036505	0.14494	-0.1308	-0.088366	0.044208
152	1.432	-0.091753	0.0062194	0.14794	-0.12716	-0.21004	0.26281	-0.14043	-0.1917	0.28535	-0.046816	-0.15316	-0.008669	-0.046816	0.031938	-0.008669	0	0	0	-0.12125	0.023178	0.025842	-0.12274	0.036864	0.14469	-0.13051	-0.088474	0.044487
153	1.4415	-0.0917	0.0067033	0.14776	-0.1267	-0.2085	0.26499	-0.14009	-0.18989	0.28729	-0.046816	-0.15316	-0.008669	-0.046816	0.031938	-0.008669	0	0	0	-0.12116	0.023015	0.025698	-0.12272	0.037218	0.14445	-0.13024	-0.088581	0.044769
154	1.451	-0.091653	0.0071831	0.14758	-0.12625	-0.20696	0.26713	-0.13976	-0.18808	0.2892	-0.046816	-0.15316	-0.008669	-0.046816	0.031938	-0.008669	0	0	0	-0.12107	0.022851	0.025568	-0.12269	0.037566	0.14422	-0.12998	-0.088685	0.045054
155	1.4605	-0.091612	0.0076582	0.14741	-0.12582	-0.20541	0.26923	-0.13943	-0.18627	0.29106	-0.046816	-0.15316	-0.008669	-0.046816	0.031938	-0.008669	0	0	0	-0.12099	0.022687	0.025454	-0.12268	0.037909	0.144	-0.12974	-0.088786	0.045341
156	1.47	-0.091577	0.008128	0.14724	-0.1254	-0.20386	0.27129	-0.13911	-0.18445	0.29289	-0.046816	-0.15316	-0.008669	-0.046816	0.031938	-0.008669	0	0	0	-0.12092	0.022522	0.025357	-0.12266	0.038245	0.14378	-0.12952	-0.088885	0.045632
